<svg xmlns="http://www.w3.org/2000/svg" xmlns:xlink="http://www.w3.org/1999/xlink" width="256" zoomAndPan="magnify" viewBox="0 0 192 95.999999" height="128" preserveAspectRatio="xMidYMid meet" version="1.0"><defs><g/><clipPath id="c12ce36de7"><path d="M 0.230469 0.996094 L 61.886719 0.996094 L 61.886719 35.804688 L 0.230469 35.804688 Z M 0.230469 0.996094 " clip-rule="nonzero"/></clipPath><clipPath id="a1d0fe7e37"><path d="M 0.539062 2 L 21 2 L 21 32 L 0.539062 32 Z M 0.539062 2 " clip-rule="nonzero"/></clipPath><clipPath id="255a5a098c"><path d="M 2 2 L 61.886719 2 L 61.886719 35.460938 L 2 35.460938 Z M 2 2 " clip-rule="nonzero"/></clipPath><clipPath id="c71696c114"><rect x="0" width="62" y="0" height="36"/></clipPath><clipPath id="9ed8a62b9c"><rect x="0" width="163" y="0" height="36"/></clipPath></defs><g transform="matrix(1, 0, 0, 1, 14, 27)"><g clip-path="url(#9ed8a62b9c)"><g clip-path="url(#c12ce36de7)"><g transform="matrix(1, 0, 0, 1, 0.000000000000003553, -0.000000000000007105)"><g clip-path="url(#c71696c114)"><path fill="#000000" d="M 15.492188 5.550781 C 15.824219 5.714844 16.117188 5.949219 16.335938 6.238281 L 18.492188 4.140625 C 18.710938 4.25 18.949219 4.304688 19.210938 4.304688 C 19.292969 4.304688 19.390625 4.292969 19.472656 4.292969 L 21.351562 6.902344 C 21.046875 7.207031 20.867188 7.621094 20.867188 8.078125 C 20.867188 8.988281 21.601562 9.722656 22.511719 9.722656 C 22.925781 9.722656 23.3125 9.570312 23.601562 9.304688 C 25.066406 10.191406 26.296875 11.40625 27.222656 12.84375 C 27.457031 13.214844 28.023438 13.148438 28.160156 12.730469 L 28.160156 12.71875 C 28.214844 12.566406 28.1875 12.386719 28.105469 12.25 C 27.097656 10.675781 25.730469 9.347656 24.128906 8.382812 C 24.128906 8.351562 24.140625 8.324219 24.140625 8.285156 L 26.988281 7.996094 C 26.90625 7.757812 26.863281 7.511719 26.863281 7.25 C 26.863281 7.136719 26.875 7.011719 26.890625 6.902344 L 23.90625 7.207031 C 23.617188 6.738281 23.089844 6.417969 22.496094 6.417969 C 22.441406 6.417969 22.386719 6.417969 22.347656 6.433594 L 20.425781 3.765625 C 20.507812 3.671875 20.589844 3.574219 20.648438 3.464844 C 23.214844 3.917969 25.632812 5.023438 27.679688 6.695312 C 27.609375 6.875 27.582031 7.070312 27.582031 7.261719 C 27.582031 8.171875 28.3125 8.90625 29.226562 8.90625 C 30.136719 8.90625 30.867188 8.171875 30.867188 7.261719 C 30.867188 6.351562 30.136719 5.617188 29.226562 5.617188 C 28.90625 5.617188 28.601562 5.714844 28.355469 5.867188 C 26.226562 4.140625 23.65625 2.925781 20.839844 2.414062 C 20.714844 1.625 20.039062 1.03125 19.210938 1.03125 C 18.296875 1.03125 17.566406 1.765625 17.566406 2.675781 C 17.566406 2.925781 17.621094 3.171875 17.730469 3.378906 Z M 22.511719 7.136719 C 23.023438 7.136719 23.4375 7.550781 23.4375 8.0625 C 23.4375 8.574219 23.023438 8.988281 22.511719 8.988281 C 22 8.988281 21.585938 8.574219 21.585938 8.0625 C 21.585938 7.550781 22 7.136719 22.511719 7.136719 Z M 19.222656 1.738281 C 19.734375 1.738281 20.148438 2.152344 20.148438 2.660156 C 20.148438 3.171875 19.734375 3.585938 19.222656 3.585938 C 18.710938 3.585938 18.296875 3.171875 18.296875 2.660156 C 18.285156 2.152344 18.710938 1.738281 19.222656 1.738281 Z M 19.222656 1.738281 " fill-opacity="1" fill-rule="nonzero"/><g clip-path="url(#a1d0fe7e37)"><path fill="#000000" d="M 1.28125 18.007812 C 1.265625 18.230469 1.265625 18.464844 1.265625 18.6875 C 1.238281 23.578125 3.351562 27.996094 6.722656 31.0625 C 6.875 30.730469 7.09375 30.441406 7.371094 30.21875 C 7.359375 30.207031 7.34375 30.191406 7.332031 30.179688 C 3.988281 27.070312 2.191406 22.761719 2.355469 18.1875 C 2.355469 18.148438 2.355469 18.105469 2.355469 18.066406 C 3.035156 17.855469 3.53125 17.234375 3.53125 16.488281 C 3.53125 16.367188 3.515625 16.242188 3.488281 16.128906 L 6.542969 14.15625 C 6.847656 14.488281 7.273438 14.695312 7.757812 14.695312 C 8.671875 14.695312 9.402344 13.960938 9.402344 13.050781 C 9.402344 12.691406 9.292969 12.359375 9.097656 12.097656 C 10.175781 10.675781 11.597656 9.527344 13.230469 8.769531 C 13.53125 9.113281 13.972656 9.335938 14.472656 9.335938 C 15.316406 9.335938 16.019531 8.699219 16.101562 7.871094 C 16.695312 7.773438 17.316406 7.71875 17.9375 7.730469 C 18.699219 7.730469 19.429688 7.816406 20.136719 7.964844 C 20.148438 7.59375 20.261719 7.25 20.4375 6.929688 C 19.554688 6.738281 18.644531 6.640625 17.703125 6.652344 C 17.082031 6.667969 16.460938 6.722656 15.851562 6.820312 C 15.5625 6.351562 15.050781 6.046875 14.457031 6.046875 C 13.988281 6.046875 13.558594 6.238281 13.269531 6.558594 L 10.039062 6.089844 C 10.039062 6.15625 10.050781 6.226562 10.050781 6.296875 C 10.050781 6.597656 9.996094 6.890625 9.886719 7.164062 L 12.828125 7.59375 C 12.828125 7.621094 12.828125 7.664062 12.828125 7.691406 C 12.828125 7.71875 12.828125 7.746094 12.828125 7.757812 C 11.003906 8.601562 9.429688 9.886719 8.226562 11.460938 C 8.1875 11.449219 8.144531 11.433594 8.105469 11.433594 L 8.105469 7.882812 C 8.808594 7.703125 9.332031 7.054688 9.332031 6.296875 C 9.332031 6.128906 9.304688 5.976562 9.265625 5.824219 C 11.53125 4.304688 14.167969 3.421875 16.929688 3.257812 C 16.890625 3.078125 16.863281 2.882812 16.863281 2.675781 C 16.863281 2.511719 16.875 2.34375 16.917969 2.179688 C 13.90625 2.359375 11.074219 3.367188 8.683594 4.984375 C 8.40625 4.777344 8.0625 4.652344 7.6875 4.652344 C 6.777344 4.652344 6.046875 5.382812 6.046875 6.296875 C 6.046875 6.558594 6.101562 6.792969 6.210938 7.011719 C 4.070312 9.140625 2.480469 11.847656 1.734375 14.847656 C 0.894531 14.914062 0.230469 15.621094 0.230469 16.488281 C 0.242188 17.167969 0.671875 17.761719 1.28125 18.007812 Z M 7.757812 12.109375 C 8.269531 12.109375 8.683594 12.523438 8.683594 13.035156 C 8.683594 13.546875 8.269531 13.960938 7.757812 13.960938 C 7.246094 13.960938 6.832031 13.546875 6.832031 13.035156 C 6.832031 12.523438 7.246094 12.109375 7.757812 12.109375 Z M 6.914062 7.730469 C 6.957031 7.746094 6.984375 7.773438 7.027344 7.785156 L 7.027344 11.570312 C 6.488281 11.847656 6.113281 12.402344 6.113281 13.035156 C 6.113281 13.0625 6.113281 13.089844 6.113281 13.121094 L 2.910156 15.191406 C 2.867188 15.148438 2.8125 15.121094 2.773438 15.09375 C 3.449219 12.316406 4.871094 9.761719 6.914062 7.730469 Z M 1.886719 15.535156 C 2.398438 15.535156 2.8125 15.949219 2.8125 16.460938 C 2.8125 16.972656 2.398438 17.386719 1.886719 17.386719 C 1.375 17.386719 0.960938 16.972656 0.960938 16.460938 C 0.960938 15.949219 1.363281 15.535156 1.886719 15.535156 Z M 1.886719 15.535156 " fill-opacity="1" fill-rule="nonzero"/></g><g clip-path="url(#255a5a098c)"><path fill="#27aae1" d="M 5.933594 23.078125 C 5.894531 23.21875 5.878906 23.355469 5.878906 23.507812 C 5.878906 24.28125 6.40625 24.929688 7.121094 25.109375 L 7.839844 30.746094 C 7.453125 31.050781 7.21875 31.519531 7.21875 32.03125 C 7.21875 32.941406 7.953125 33.675781 8.863281 33.675781 C 9.25 33.675781 9.59375 33.535156 9.871094 33.328125 C 12.246094 34.640625 14.984375 35.386719 17.882812 35.386719 C 19.707031 35.386719 21.460938 35.097656 23.089844 34.558594 C 23.394531 34.875 23.808594 35.070312 24.28125 35.070312 C 25.191406 35.070312 25.921875 34.335938 25.921875 33.425781 C 25.921875 32.96875 25.742188 32.570312 25.453125 32.265625 L 27.195312 27.886719 C 27.71875 27.679688 28.105469 27.195312 28.203125 26.628906 L 31.546875 25 C 31.3125 24.722656 31.160156 24.390625 31.074219 24.03125 L 27.996094 25.539062 C 27.980469 25.523438 27.980469 25.511719 27.96875 25.496094 C 28.988281 23.964844 29.679688 22.179688 29.914062 20.261719 C 30.027344 19.40625 30.757812 18.769531 31.613281 18.769531 C 32.652344 18.769531 33.4375 19.667969 33.3125 20.6875 C 33.257812 21.089844 33.203125 21.492188 33.121094 21.878906 C 32.320312 21.988281 31.710938 22.679688 31.710938 23.507812 C 31.710938 23.992188 31.917969 24.417969 32.25 24.722656 C 31.476562 26.585938 30.34375 28.285156 28.878906 29.765625 C 28.035156 30.609375 27.113281 31.339844 26.128906 31.960938 C 26.351562 32.238281 26.515625 32.570312 26.585938 32.929688 C 29.542969 31.105469 31.878906 28.382812 33.230469 25.152344 C 33.273438 25.152344 33.3125 25.152344 33.355469 25.152344 C 34.265625 25.152344 35 24.417969 35 23.507812 C 35 22.898438 34.667969 22.359375 34.171875 22.070312 C 34.378906 21.035156 34.488281 19.972656 34.5 18.878906 C 34.542969 12.773438 39.390625 7.746094 45.496094 7.71875 C 51.644531 7.691406 56.644531 12.703125 56.589844 18.867188 C 56.535156 24.929688 51.535156 29.847656 45.484375 29.804688 C 42.695312 29.792969 40.152344 28.742188 38.21875 27.015625 C 36.90625 25.839844 34.832031 26.171875 33.976562 27.71875 C 33.964844 27.734375 33.949219 27.761719 33.949219 27.777344 C 33.3125 28.910156 33.5625 30.332031 34.53125 31.203125 C 37.5 33.839844 41.421875 35.429688 45.71875 35.386719 C 54.878906 35.304688 62.199219 27.886719 62.183594 18.726562 C 62.171875 9.554688 54.726562 2.136719 45.554688 2.136719 C 36.410156 2.136719 28.988281 9.515625 28.921875 18.644531 C 28.90625 20.910156 28.230469 23.039062 27.070312 24.804688 C 26.917969 24.75 26.738281 24.722656 26.574219 24.722656 C 25.660156 24.722656 24.929688 25.453125 24.929688 26.367188 C 24.929688 27.085938 25.386719 27.691406 26.019531 27.914062 L 24.488281 31.78125 C 24.417969 31.769531 24.363281 31.769531 24.292969 31.769531 C 23.382812 31.769531 22.648438 32.5 22.648438 33.410156 C 22.648438 33.46875 22.648438 33.523438 22.664062 33.5625 C 21.15625 34.046875 19.582031 34.308594 17.980469 34.308594 C 15.4375 34.324219 12.9375 33.714844 10.714844 32.554688 L 14.761719 31.644531 C 14.570312 31.339844 14.445312 30.996094 14.402344 30.621094 L 10.425781 31.519531 C 10.21875 30.871094 9.609375 30.398438 8.890625 30.386719 L 8.351562 26.242188 C 10.023438 28.371094 12.398438 29.917969 15.105469 30.566406 C 15.21875 31.382812 15.910156 32.015625 16.75 32.015625 C 17.027344 32.015625 17.277344 31.949219 17.496094 31.835938 L 21.929688 33.289062 C 21.957031 32.914062 22.070312 32.554688 22.234375 32.25 L 18.285156 30.964844 C 18.296875 30.9375 18.296875 30.910156 18.3125 30.882812 C 20.9375 30.785156 23.355469 29.863281 25.289062 28.355469 C 24.96875 28.148438 24.707031 27.871094 24.527344 27.554688 C 22.789062 28.894531 20.632812 29.722656 18.285156 29.804688 C 18.050781 29.171875 17.457031 28.730469 16.738281 28.730469 C 16.144531 28.730469 15.617188 29.046875 15.328125 29.515625 C 12.511719 28.851562 10.105469 27.113281 8.585938 24.75 C 8.933594 24.445312 9.152344 24.003906 9.152344 23.507812 C 9.152344 22.59375 8.421875 21.863281 7.507812 21.863281 C 7.425781 21.863281 7.359375 21.863281 7.273438 21.878906 C 6.972656 20.855469 6.820312 19.777344 6.832031 18.660156 C 6.847656 17.511719 7.027344 16.40625 7.371094 15.355469 C 7.011719 15.300781 6.667969 15.148438 6.378906 14.941406 C 5.988281 16.101562 5.769531 17.359375 5.753906 18.644531 C 5.742188 19.585938 5.851562 20.507812 6.046875 21.394531 L 3.628906 18.050781 C 3.378906 18.328125 3.074219 18.535156 2.742188 18.671875 Z M 25.648438 26.367188 C 25.648438 25.855469 26.0625 25.441406 26.574219 25.441406 C 27.082031 25.441406 27.5 25.855469 27.5 26.367188 C 27.5 26.878906 27.082031 27.292969 26.574219 27.292969 C 26.0625 27.292969 25.648438 26.878906 25.648438 26.367188 Z M 24.292969 32.484375 C 24.804688 32.484375 25.21875 32.902344 25.21875 33.410156 C 25.21875 33.921875 24.804688 34.335938 24.292969 34.335938 C 23.78125 34.335938 23.367188 33.921875 23.367188 33.410156 C 23.367188 32.902344 23.769531 32.484375 24.292969 32.484375 Z M 7.523438 22.582031 C 8.035156 22.582031 8.449219 22.996094 8.449219 23.507812 C 8.449219 24.019531 8.035156 24.433594 7.523438 24.433594 C 7.011719 24.433594 6.597656 24.019531 6.597656 23.507812 C 6.585938 22.996094 7 22.582031 7.523438 22.582031 Z M 7.523438 22.582031 " fill-opacity="1" fill-rule="nonzero"/></g></g></g></g><g fill="#27aae1" fill-opacity="1"><g transform="translate(64.243307, 29.864039)"><g><path d="M 7.390625 -4.484375 L 16.265625 -4.484375 L 16.265625 0 L 2.546875 0 L 2.546875 -22.28125 L 15.921875 -22.28125 L 15.921875 -17.828125 L 7.390625 -17.828125 L 7.390625 -13.4375 L 15.09375 -13.4375 L 15.09375 -9.078125 L 7.390625 -9.078125 Z M 7.390625 -4.484375 "/></g></g></g><g fill="#27aae1" fill-opacity="1"><g transform="translate(82.032679, 29.864039)"><g><path d="M 17.921875 -22.28125 L 17.921875 -17.796875 L 11.71875 -17.796875 L 11.71875 0 L 6.875 0 L 6.875 -17.796875 L 0.703125 -17.796875 L 0.703125 -22.28125 Z M 17.921875 -22.28125 "/></g></g></g><g fill="#27aae1" fill-opacity="1"><g transform="translate(100.617642, 29.864039)"><g><path d="M 17.34375 0 L 15.78125 -4.234375 L 6.90625 -4.234375 L 5.375 0 L 0.28125 0 L 9 -22.28125 L 13.5625 -22.28125 L 22.5625 0 Z M 11.328125 -16.390625 L 8.4375 -8.4375 L 14.265625 -8.4375 Z M 11.328125 -16.390625 "/></g></g></g><g fill="#27aae1" fill-opacity="1"><g transform="translate(123.466965, 29.864039)"><g><path d="M 7.390625 -4.484375 L 15.921875 -4.484375 L 15.921875 0 L 2.546875 0 L 2.546875 -22.28125 L 7.390625 -22.28125 Z M 7.390625 -4.484375 "/></g></g></g><g fill="#27aae1" fill-opacity="1"><g transform="translate(140.078877, 29.864039)"><g><path d="M 21.140625 0 L 15.25 0 L 7.390625 -10.890625 L 7.390625 0 L 2.546875 0 L 2.546875 -22.28125 L 7.390625 -22.28125 L 7.390625 -12 L 14.671875 -22.28125 L 20.3125 -22.28125 L 12.703125 -11.625 Z M 21.140625 0 "/></g></g></g></g></g></svg>